<mxfile host="app.diagrams.net" agent="Mozilla/5.0 (Macintosh; Intel Mac OS X 10_15_7) AppleWebKit/537.36 (KHTML, like Gecko) Chrome/141.0.0.0 Safari/537.36" version="28.2.7">
  <diagram name="Page-1" id="13e1069c-82ec-6db2-03f1-153e76fe0fe0">
    <mxGraphModel dx="2066" dy="1111" grid="1" gridSize="10" guides="1" tooltips="1" connect="1" arrows="1" fold="1" page="1" pageScale="1" pageWidth="1100" pageHeight="850" background="none" math="0" shadow="0">
      <root>
        <mxCell id="0" />
        <mxCell id="1" parent="0" />
        <mxCell id="em0sQ1Ae_K5pATwGFNZl-34" style="edgeStyle=orthogonalEdgeStyle;rounded=0;orthogonalLoop=1;jettySize=auto;html=1;entryX=0.5;entryY=0;entryDx=0;entryDy=0;" edge="1" parent="1" source="em0sQ1Ae_K5pATwGFNZl-1" target="em0sQ1Ae_K5pATwGFNZl-3">
          <mxGeometry relative="1" as="geometry" />
        </mxCell>
        <mxCell id="em0sQ1Ae_K5pATwGFNZl-35" value="发请网页拾取请求" style="edgeLabel;html=1;align=center;verticalAlign=middle;resizable=0;points=[];" vertex="1" connectable="0" parent="em0sQ1Ae_K5pATwGFNZl-34">
          <mxGeometry x="-0.2" relative="1" as="geometry">
            <mxPoint as="offset" />
          </mxGeometry>
        </mxCell>
        <mxCell id="em0sQ1Ae_K5pATwGFNZl-1" value="RPA3编排" style="rounded=0;whiteSpace=wrap;html=1;fillColor=#f8cecc;strokeColor=#b85450;" vertex="1" parent="1">
          <mxGeometry x="440" y="90" width="120" height="60" as="geometry" />
        </mxCell>
        <mxCell id="em0sQ1Ae_K5pATwGFNZl-8" style="edgeStyle=orthogonalEdgeStyle;rounded=0;orthogonalLoop=1;jettySize=auto;html=1;" edge="1" parent="1" source="em0sQ1Ae_K5pATwGFNZl-3" target="em0sQ1Ae_K5pATwGFNZl-7">
          <mxGeometry relative="1" as="geometry" />
        </mxCell>
        <mxCell id="em0sQ1Ae_K5pATwGFNZl-9" value="启动拾取流程" style="edgeLabel;html=1;align=center;verticalAlign=middle;resizable=0;points=[];" vertex="1" connectable="0" parent="em0sQ1Ae_K5pATwGFNZl-8">
          <mxGeometry x="-0.2" y="-2" relative="1" as="geometry">
            <mxPoint as="offset" />
          </mxGeometry>
        </mxCell>
        <mxCell id="em0sQ1Ae_K5pATwGFNZl-40" value="通过emit发送回浏览器" style="edgeStyle=orthogonalEdgeStyle;rounded=0;orthogonalLoop=1;jettySize=auto;html=1;" edge="1" parent="1" source="em0sQ1Ae_K5pATwGFNZl-3" target="em0sQ1Ae_K5pATwGFNZl-39">
          <mxGeometry relative="1" as="geometry" />
        </mxCell>
        <mxCell id="em0sQ1Ae_K5pATwGFNZl-3" value="客户端" style="rounded=0;whiteSpace=wrap;html=1;fillColor=#d5e8d4;strokeColor=#82b366;" vertex="1" parent="1">
          <mxGeometry x="440" y="260" width="120" height="60" as="geometry" />
        </mxCell>
        <mxCell id="em0sQ1Ae_K5pATwGFNZl-15" style="edgeStyle=orthogonalEdgeStyle;rounded=0;orthogonalLoop=1;jettySize=auto;html=1;exitX=0.5;exitY=1;exitDx=0;exitDy=0;entryX=0.5;entryY=1;entryDx=0;entryDy=0;" edge="1" parent="1" source="em0sQ1Ae_K5pATwGFNZl-7" target="em0sQ1Ae_K5pATwGFNZl-3">
          <mxGeometry relative="1" as="geometry" />
        </mxCell>
        <mxCell id="em0sQ1Ae_K5pATwGFNZl-20" value="websocket传回结果" style="edgeLabel;html=1;align=center;verticalAlign=middle;resizable=0;points=[];" vertex="1" connectable="0" parent="em0sQ1Ae_K5pATwGFNZl-15">
          <mxGeometry x="0.0258" relative="1" as="geometry">
            <mxPoint as="offset" />
          </mxGeometry>
        </mxCell>
        <mxCell id="em0sQ1Ae_K5pATwGFNZl-17" style="edgeStyle=orthogonalEdgeStyle;rounded=0;orthogonalLoop=1;jettySize=auto;html=1;exitX=0.5;exitY=0;exitDx=0;exitDy=0;" edge="1" parent="1" source="em0sQ1Ae_K5pATwGFNZl-7">
          <mxGeometry relative="1" as="geometry">
            <mxPoint x="740" y="230" as="targetPoint" />
          </mxGeometry>
        </mxCell>
        <mxCell id="em0sQ1Ae_K5pATwGFNZl-7" value="浏览器" style="rounded=0;whiteSpace=wrap;html=1;" vertex="1" parent="1">
          <mxGeometry x="700" y="260" width="120" height="60" as="geometry" />
        </mxCell>
        <mxCell id="em0sQ1Ae_K5pATwGFNZl-11" style="edgeStyle=orthogonalEdgeStyle;rounded=0;orthogonalLoop=1;jettySize=auto;html=1;" edge="1" parent="1" source="em0sQ1Ae_K5pATwGFNZl-10" target="em0sQ1Ae_K5pATwGFNZl-7">
          <mxGeometry relative="1" as="geometry" />
        </mxCell>
        <mxCell id="em0sQ1Ae_K5pATwGFNZl-13" value="等待用户交互" style="edgeLabel;html=1;align=center;verticalAlign=middle;resizable=0;points=[];" vertex="1" connectable="0" parent="em0sQ1Ae_K5pATwGFNZl-11">
          <mxGeometry x="0.1111" y="2" relative="1" as="geometry">
            <mxPoint as="offset" />
          </mxGeometry>
        </mxCell>
        <mxCell id="em0sQ1Ae_K5pATwGFNZl-10" value="用户" style="shape=umlActor;verticalLabelPosition=bottom;verticalAlign=top;html=1;outlineConnect=0;" vertex="1" parent="1">
          <mxGeometry x="980" y="260" width="30" height="60" as="geometry" />
        </mxCell>
        <mxCell id="em0sQ1Ae_K5pATwGFNZl-19" value="用户放弃，流程结果" style="rounded=1;whiteSpace=wrap;html=1;" vertex="1" parent="1">
          <mxGeometry x="680" y="170" width="120" height="60" as="geometry" />
        </mxCell>
        <mxCell id="em0sQ1Ae_K5pATwGFNZl-42" value="" style="edgeStyle=orthogonalEdgeStyle;rounded=0;orthogonalLoop=1;jettySize=auto;html=1;" edge="1" parent="1" source="em0sQ1Ae_K5pATwGFNZl-39" target="em0sQ1Ae_K5pATwGFNZl-41">
          <mxGeometry relative="1" as="geometry" />
        </mxCell>
        <mxCell id="em0sQ1Ae_K5pATwGFNZl-39" value="RPA3编排" style="whiteSpace=wrap;html=1;rounded=0;fillColor=#f8cecc;strokeColor=#b85450;" vertex="1" parent="1">
          <mxGeometry x="440" y="400" width="120" height="60" as="geometry" />
        </mxCell>
        <mxCell id="em0sQ1Ae_K5pATwGFNZl-44" style="edgeStyle=orthogonalEdgeStyle;rounded=0;orthogonalLoop=1;jettySize=auto;html=1;exitX=1;exitY=0.5;exitDx=0;exitDy=0;entryX=0;entryY=0.5;entryDx=0;entryDy=0;" edge="1" parent="1" source="em0sQ1Ae_K5pATwGFNZl-41" target="em0sQ1Ae_K5pATwGFNZl-43">
          <mxGeometry relative="1" as="geometry" />
        </mxCell>
        <mxCell id="em0sQ1Ae_K5pATwGFNZl-45" value="否&lt;div&gt;&lt;br&gt;&lt;/div&gt;" style="edgeLabel;html=1;align=center;verticalAlign=middle;resizable=0;points=[];" vertex="1" connectable="0" parent="em0sQ1Ae_K5pATwGFNZl-44">
          <mxGeometry x="-0.219" relative="1" as="geometry">
            <mxPoint as="offset" />
          </mxGeometry>
        </mxCell>
        <mxCell id="em0sQ1Ae_K5pATwGFNZl-47" value="" style="edgeStyle=orthogonalEdgeStyle;rounded=0;orthogonalLoop=1;jettySize=auto;html=1;" edge="1" parent="1" source="em0sQ1Ae_K5pATwGFNZl-41" target="em0sQ1Ae_K5pATwGFNZl-46">
          <mxGeometry relative="1" as="geometry" />
        </mxCell>
        <mxCell id="em0sQ1Ae_K5pATwGFNZl-48" value="是" style="edgeLabel;html=1;align=center;verticalAlign=middle;resizable=0;points=[];" vertex="1" connectable="0" parent="em0sQ1Ae_K5pATwGFNZl-47">
          <mxGeometry x="-0.3333" y="3" relative="1" as="geometry">
            <mxPoint as="offset" />
          </mxGeometry>
        </mxCell>
        <mxCell id="em0sQ1Ae_K5pATwGFNZl-41" value="判断是否有效" style="rhombus;whiteSpace=wrap;html=1;rounded=0;" vertex="1" parent="1">
          <mxGeometry x="435" y="530" width="130" height="80" as="geometry" />
        </mxCell>
        <mxCell id="em0sQ1Ae_K5pATwGFNZl-43" value="用户放弃，流程结果" style="rounded=1;whiteSpace=wrap;html=1;" vertex="1" parent="1">
          <mxGeometry x="670" y="540" width="120" height="60" as="geometry" />
        </mxCell>
        <mxCell id="em0sQ1Ae_K5pATwGFNZl-46" value="存入元素库并应用流程" style="whiteSpace=wrap;html=1;rounded=0;" vertex="1" parent="1">
          <mxGeometry x="440" y="700" width="120" height="60" as="geometry" />
        </mxCell>
      </root>
    </mxGraphModel>
  </diagram>
</mxfile>
